<svg xmlns="http://www.w3.org/2000/svg" width="1200" height="630" viewBox="0 0 1200 630">
  <rect width="1200" height="630" fill="#fafbf8"/>
  <rect x="0" y="0" width="12" height="630" fill="#226047"/>
  <g transform="translate(72 64)">
    <rect width="56" height="56" rx="12" fill="#226047"/>
    <g transform="scale(.875)">
      <path d="M22 49V24c0-8 4-12 12-12h4v7h-4c-3 0-4 2-4 5v3h8v7h-8v15zM16 27h8v7h-8z" fill="#fafbf8"/>
      <path d="m48 18-9 31" stroke="#bed494" stroke-width="5" stroke-linecap="round"/>
    </g>
  </g>
  <g font-family="Noto Sans CJK SC, sans-serif">
    <text x="148" y="103" fill="#226047" font-size="31" font-weight="600">flops-agent</text>
    <text x="72" y="256" fill="#25332e" font-size="56" font-weight="700">开箱即用的云端 agent 框架</text>
    <text x="72" y="337" fill="#5d6861" font-size="29">它跑在你自己的服务端上。</text>
    <text x="72" y="388" fill="#5d6861" font-size="25">执行与订阅、取消与恢复、多端续接、远端工具。</text>
    <text x="72" y="432" fill="#5d6861" font-size="25">模型、存储、执行器由你接。</text>
    <path d="M72 492h1056" stroke="#dce2d9"/>
    <text x="72" y="548" fill="#226047" font-size="23">MIT · Beta · Python ≥ 3.10</text>
    <text x="1128" y="548" text-anchor="end" fill="#5d6861" font-size="21">flops-agent.xenotech.studio</text>
  </g>
</svg>
